<?xml version="1.0" encoding="UTF-8"?>
<svg width="64px" height="65px" viewBox="0 0 64 65" version="1.1" xmlns="http://www.w3.org/2000/svg" xmlns:xlink="http://www.w3.org/1999/xlink">
    <title>cone-svgrepo-com</title>
    <g id="Page-1" stroke="none" stroke-width="1" fill="none" fill-rule="evenodd">
        <g id="Artboard" transform="translate(-160.000000, -172.000000)" fill="#000000" fill-rule="nonzero">
            <g id="cone-svgrepo-com" transform="translate(160.000000, 172.000000)">
                <path d="M25.2635442,45.3451099 L22.569472,45.3451099 C22.2147552,45.3451099 21.897298,45.4891472 21.6572359,45.7158308 C21.8279051,45.0276527 21.4358036,44.3234705 20.7503762,44.1207931 C20.0435683,43.9073628 19.3020014,44.3154684 19.0939476,45.0224014 L18.7178502,46.300107 C18.5071707,47.006915 18.9125256,47.7484819 19.6194585,47.9565357 C19.744866,47.9965461 19.8728991,48.0125502 19.9955559,48.0125502 C20.571705,48.0125502 21.105218,47.6364529 21.2758872,47.0549274 L21.2972677,46.9829087 C21.4386793,47.5670599 21.9428098,48.0125502 22.569597,48.0125502 L25.2636692,48.0125502 C25.9998597,48.0125502 26.5973894,47.4150206 26.5973894,46.6788301 C26.5972643,45.9425145 25.9997347,45.3451099 25.2635442,45.3451099 Z" id="Path"></path>
                <path d="M18.6352038,47.2628562 C18.3445036,46.5826802 17.5522986,46.2679737 16.885376,46.5612996 L14.4073597,47.6229494 C13.7325601,47.9136496 13.4177286,48.6978526 13.7085539,49.3727772 C13.9246098,49.8795334 14.4153618,50.1809864 14.9328707,50.1809864 C15.1062906,50.1809864 15.2849618,50.1489781 15.4583817,50.0743338 L17.9336473,49.012684 C18.6111976,48.7219838 18.9259041,47.9377809 18.6352038,47.2628562 Z" id="Path"></path>
                <path d="M11.2039057,50.4450547 C10.9158311,49.762253 10.1236261,49.4474215 9.45407784,49.7434982 L6.97881227,50.8051479 C6.30126192,51.0958481 5.98655548,51.8800511 6.27725571,52.5576014 C6.49331162,53.0643576 6.98406362,53.3658106 7.50157255,53.3658106 C7.67761811,53.3658106 7.85628935,53.3338023 8.02708355,53.2564073 L10.5023491,52.1947575 C11.1798995,51.9040573 11.4946059,51.1198543 11.2039057,50.4450547 Z" id="Path"></path>
                <path d="M49.5898396,47.6203237 L47.1118233,46.558674 C46.442275,46.2679737 45.65007,46.5800545 45.3619955,47.2602305 C45.0712952,47.9350301 45.3860017,48.7192331 46.063552,49.0100584 L48.5388176,50.0717081 C48.7094868,50.1463524 48.888283,50.1811114 49.0643286,50.1811114 C49.5818375,50.1811114 50.0752152,49.8796584 50.2886455,49.3702766 C50.5794707,48.6952269 50.2647643,47.9110239 49.5898396,47.6203237 Z" id="Path"></path>
                <path d="M57.0185121,50.8051479 L54.5432465,49.7434982 C53.8710725,49.4500472 53.0842439,49.7675044 52.7934187,50.4450547 C52.5027184,51.1198543 52.8174249,51.9040573 53.4949752,52.1948826 L55.9702408,53.2565323 C56.14091,53.3311766 56.3197062,53.3659356 56.4957518,53.3659356 C57.01051,53.3659356 57.5040127,53.0644826 57.7200686,52.5577265 C58.0107689,51.8800511 57.6959374,51.0958481 57.0185121,50.8051479 Z" id="Path"></path>
                <path d="M63.9669353,54.472722 C63.9455547,54.3446889 63.9189228,54.2220322 63.8629083,54.1046268 C63.8522806,54.0832462 63.8549063,54.0566144 63.8442785,54.0352338 L34.5113124,0.709558627 C34.4926826,0.674924664 34.4633,0.64816774 34.4392938,0.613533777 C34.4072855,0.565521352 34.3726515,0.522885318 34.3352669,0.477498572 C34.3006329,0.434862538 34.2686246,0.394852184 34.2286143,0.357467509 C34.1832275,0.317457155 34.1352151,0.282823192 34.084577,0.248064197 C34.0631965,0.234685735 34.049943,0.210679522 34.0311882,0.197426092 C34.007182,0.18404763 33.9805501,0.18142195 33.9537931,0.168043488 C33.9511675,0.168043488 33.9484167,0.165417809 33.9457911,0.165417809 C33.8924023,0.136035205 33.8391385,0.109403313 33.7803733,0.0880227795 C33.7537414,0.0773950291 33.7349865,0.0586401755 33.7083546,0.0506381047 C33.6763463,0.0426360338 33.6469637,0.0506381047 33.6149555,0.0426360338 C33.558941,0.0292575716 33.5029265,0.0266318921 33.4442863,0.0212555007 C33.4336585,0.0212555007 33.4229058,0.0158791094 33.4096523,0.0132534299 C33.3936482,0.0160041417 33.377644,0 33.3563885,0 C33.3537629,0 33.3483865,0.0026256795 33.3457608,0.0026256795 C33.3431351,0.0026256795 33.3377587,0 33.3323823,0 C33.3083761,0 33.2897463,0.0133784622 33.2657401,0.0133784622 C33.2097256,0.0160041417 33.1563368,0.0213805331 33.1003223,0.0320082834 C33.0763161,0.0373846748 33.0496842,0.0293826039 33.025678,0.0346339629 C32.9856676,0.0426360338 32.9590357,0.0692679259 32.921651,0.0826463881 C32.8656365,0.101276209 32.8122477,0.114654672 32.7616096,0.141286564 C32.7135972,0.165292776 32.6709612,0.191924668 32.6255744,0.221307272 C32.5721856,0.255941235 32.5241732,0.29332591 32.4761607,0.335961944 C32.4335247,0.373346619 32.3935144,0.405354902 32.353504,0.447990936 C32.31887,0.485375611 32.2921131,0.525385965 32.2628555,0.568021999 C32.2442257,0.594653891 32.2148431,0.616034424 32.1962133,0.645417028 C32.1935876,0.648042707 32.1908369,0.648042707 32.1882112,0.650793419 L0.179927777,53.9979742 C0.163923635,54.0273568 0.166549314,54.0619907 0.150545173,54.0913733 C0.0919049971,54.2034023 0.0598967137,54.3234334 0.0385161806,54.4488409 C0.0251377184,54.5128574 0.00388221763,54.5714976 0.000500136424,54.6382649 C-0.00424488559,54.7876785 0.0251377184,54.9397179 0.0731501435,55.0890065 C0.0837778939,55.1236405 0.075775823,55.1636508 0.0917799648,55.1984098 C0.0944056443,55.2010355 0.0971563561,55.2037862 0.0997820356,55.2090376 L0.0997820356,55.2116633 C0.102407715,55.2170397 0.110409786,55.2196653 0.113160498,55.2276674 C0.209185348,55.4410976 0.363850374,55.6117668 0.550648716,55.747802 C0.614665283,55.7958144 0.681307529,55.817195 0.753326167,55.8518289 C0.838723267,55.894465 0.910741905,55.9584815 1.00401604,55.9798621 L33.0122995,63.9819329 C33.1163264,64.0085648 33.2257297,64.0219433 33.335008,64.0219433 C33.4524134,64.0219433 33.5696937,64.0059391 33.6844734,63.9739309 L63.0254416,55.97186 C63.1108387,55.9478538 63.177481,55.8864629 63.2575017,55.8492033 C63.3268946,55.8145693 63.3909112,55.7905631 63.4549278,55.7451763 C63.6469775,55.6037647 63.8096446,55.4330956 63.9056694,55.2090376 C63.9136715,55.1876571 63.9082951,55.1636508 63.9162972,55.1423953 C63.9723117,54.9743519 64.0043199,54.808934 63.9995285,54.6462669 C63.9963179,54.5875017 63.9749373,54.5314872 63.9669353,54.472722 Z M31.9986622,45.3451099 L30.6516886,45.3451099 C29.9154981,45.3451099 29.3179684,45.9426395 29.3179684,46.6788301 C29.3179684,47.4150206 29.9154981,48.0125502 30.6516886,48.0125502 L31.9986622,48.0125502 L31.9986622,60.975905 L3.83937481,53.9339576 C3.82337067,53.8353071 3.81799427,53.7312802 3.77535824,53.6325046 C3.74072428,53.5524839 3.67933339,53.4964694 3.63394664,53.4270764 L29.4406252,10.4133199 C29.5312736,10.8854421 29.8647349,11.2961733 30.3582376,11.4429613 C30.4836451,11.4829717 30.6116782,11.4989758 30.734335,11.4989758 C31.302482,11.4989758 31.8199909,11.1282549 31.9986622,10.5653592 L31.9986622,45.3451099 Z M31.9986622,6.44429272 C31.9506497,6.42291219 31.9160158,6.38827823 31.8652526,6.37489977 L31.9986622,6.15084178 L31.9986622,6.44429272 Z M60.2245918,53.6298789 C60.1739537,53.7472843 60.1659516,53.8673154 60.1499475,53.9873464 L34.6687282,60.9385203 L34.6661025,46.7454723 C34.6661025,46.7214661 34.6794809,46.7028363 34.6794809,46.6788301 C34.6794809,46.6548238 34.6688532,46.636194 34.6661025,46.6121878 L34.6661025,11.2669158 C34.8821584,11.4135787 35.1382247,11.5096036 35.4102951,11.5096036 C35.5116963,11.5096036 35.6157232,11.4989758 35.7169994,11.4749696 C36.2985249,11.3389344 36.6826243,10.8374296 36.7252604,10.2692826 L60.4193922,53.3470557 C60.3499992,53.4378292 60.2699785,53.5204756 60.2245918,53.6298789 Z" id="Shape"></path>
                <path d="M29.6354256,13.9182269 C28.925867,13.7075474 28.1870508,14.1129023 27.9789969,14.8198352 L27.23743,17.3351112 C27.0267505,18.0419191 27.4321054,18.783486 28.1390383,18.9915398 C28.2644458,19.0315502 28.3924789,19.0475543 28.5151357,19.0475543 C29.0912848,19.0475543 29.6220471,18.671457 29.795467,18.0899315 L30.5370339,15.5746556 C30.7477134,14.8678477 30.3422335,14.1262808 29.6354256,13.9182269 Z" id="Path"></path>
                <path d="M27.4108499,21.4695561 C26.6960399,21.2561259 25.9624751,21.6669822 25.7544212,22.3711645 L25.015605,24.8864404 C24.8049255,25.595999 25.2102804,26.3348152 25.9172133,26.542869 C26.0426208,26.5828794 26.1706539,26.5988835 26.2933107,26.5988835 C26.8720855,26.5988835 27.4029728,26.2227862 27.573642,25.6412607 L28.3124582,23.1259848 C28.5231377,22.4164262 28.1202835,21.67761 27.4108499,21.4695561 Z" id="Path"></path>
                <path d="M25.1915255,29.0181346 C24.4767156,28.8074551 23.7431507,29.2155607 23.5350969,29.919743 L22.7962807,32.4377696 C22.5856012,33.1473282 22.9909561,33.8861444 23.697889,34.0941983 C23.8232965,34.1342086 23.9513296,34.1502128 24.0739863,34.1502128 C24.6501354,34.1502128 25.1808978,33.7741154 25.3543177,33.1925899 L26.0931339,30.6745633 C26.3038134,29.9651297 25.8984585,29.2261885 25.1915255,29.0181346 Z" id="Path"></path>
                <path d="M22.9697006,36.5694638 C22.2575163,36.3587843 21.5213257,36.7641392 21.3132719,37.4710722 L20.5744557,39.9863481 C20.3637762,40.6959067 20.7691311,41.4347229 21.476064,41.6427768 C21.6014715,41.6827871 21.7295046,41.6987913 21.8521614,41.6987913 C22.4309361,41.6987913 22.9618235,41.3226939 23.1324927,40.7411684 L23.8713089,38.2258925 C24.0818634,37.5163339 23.6765085,36.7775177 22.9697006,36.5694638 Z" id="Path"></path>
                <path d="M43.8123444,40.0449883 L43.2201912,37.5297123 C43.049522,36.8149024 42.3265849,36.3694121 41.6144006,36.5374556 C40.8995906,36.7081247 40.456726,37.4256854 40.6221438,38.1432461 L41.2142971,40.6585221 C41.3583344,41.2720558 41.9051009,41.6854128 42.5106326,41.6854128 C42.6120338,41.6854128 42.7160607,41.674785 42.8200877,41.6507788 C43.5350227,41.4801097 43.9803879,40.762549 43.8123444,40.0449883 Z" id="Path"></path>
                <path d="M40.2621757,24.958459 L39.6700224,22.4431831 C39.501979,21.7229967 38.7684141,21.2828828 38.0669826,21.4483006 C37.3494219,21.6163441 36.9040566,22.3339048 37.0721001,23.0513405 L37.6642534,25.5666164 C37.8082906,26.1827759 38.3550571,26.5962579 38.9605889,26.5962579 C39.0619901,26.5962579 39.166017,26.5856301 39.2672932,26.5616239 C39.9847289,26.3934554 40.4302192,25.6760197 40.2621757,24.958459 Z" id="Path"></path>
                <path d="M38.4883416,17.4151319 L37.8961884,14.8998559 C37.7281449,14.1822952 36.9973308,13.73693 36.2931485,13.9049735 C35.5755878,14.073017 35.1302226,14.7905777 35.2982661,15.5080133 L35.8904193,18.0232893 C36.0344566,18.6394487 36.5812231,19.0529307 37.1867548,19.0529307 C37.288156,19.0529307 37.3894323,19.042303 37.4934592,19.0182968 C38.2108948,18.8502533 38.6563851,18.1326926 38.4883416,17.4151319 Z" id="Path"></path>
                <path d="M42.0386354,32.5017862 L41.4464822,29.9891359 C41.2784387,29.2689495 40.5448739,28.8314613 39.8434423,28.9942534 C39.1258816,29.1622969 38.6805164,29.8798576 38.8485599,30.5972933 L39.4407131,33.1099435 C39.5847504,33.726103 40.1315169,34.139585 40.7370486,34.139585 C40.8384498,34.139585 40.9424767,34.1289573 41.043753,34.104951 C41.7611886,33.9367825 42.2066789,33.2192218 42.0386354,32.5017862 Z" id="Path"></path>
                <path d="M45.3034803,46.3720006 L44.996776,45.0730395 C44.8261068,44.3554788 44.100544,43.9181156 43.3909854,44.0807827 C42.6761754,44.2514519 42.2306851,44.9690126 42.3987286,45.6865733 L42.4307369,45.8252341 C42.1880491,45.5371596 41.835958,45.3451099 41.4278524,45.3451099 L38.7337802,45.3451099 C37.9975896,45.3451099 37.40006,45.9426395 37.40006,46.6788301 C37.40006,47.4150206 37.9975896,48.0125502 38.7337802,48.0125502 L41.4278524,48.0125502 C42.0626416,48.0125502 42.5667721,47.5618086 42.7028073,46.972281 L42.705433,46.9856595 C42.8494703,47.5991932 43.3962368,48.0125502 44.0017685,48.0125502 C44.1031697,48.0125502 44.2044459,48.0019225 44.3112235,47.9779162 C45.0260335,47.806997 45.4715238,47.0895613 45.3034803,46.3720006 Z" id="Path"></path>
            </g>
        </g>
    </g>
</svg>