<?xml version="1.0" encoding="UTF-8"?>
<svg width="66px" height="66px" viewBox="0 0 66 66" version="1.1" xmlns="http://www.w3.org/2000/svg" xmlns:xlink="http://www.w3.org/1999/xlink">
    <title>line-svgrepo-com</title>
    <g id="Page-1" stroke="none" stroke-width="1" fill="none" fill-rule="evenodd">
        <g id="Artboard" transform="translate(-325.000000, -171.000000)" stroke="#000000" stroke-width="2">
            <g id="line-svgrepo-com" transform="translate(326.000000, 172.000000)">
                <path d="M6.85714286,6.85714286 L57.1428571,57.1428571 M4.57142857,9.14285714 C2.04669714,9.14285714 0,7.09613714 0,4.57142857 C0,2.04669714 2.04669714,0 4.57142857,0 C7.09613714,0 9.14285714,2.04669714 9.14285714,4.57142857 C9.14285714,7.09613714 7.09613714,9.14285714 4.57142857,9.14285714 Z M59.4285714,64 C56.9037714,64 54.8571429,61.9533714 54.8571429,59.4285714 C54.8571429,56.9037714 56.9037714,54.8571429 59.4285714,54.8571429 C61.9533714,54.8571429 64,56.9037714 64,59.4285714 C64,61.9533714 61.9533714,64 59.4285714,64 Z" id="Shape"></path>
            </g>
        </g>
    </g>
</svg>